<?xml version="1.0" standalone="no"?>
<!DOCTYPE svg PUBLIC "-//W3C//DTD SVG 1.1//EN" "http://www.w3.org/Graphics/SVG/1.1/DTD/svg11.dtd">
<svg xmlns="http://www.w3.org/2000/svg">
<metadata>Generated by Fontastic.me</metadata>
<defs>
<font id="lpl-icons" horiz-adv-x="512">
<font-face font-family="lpl-icons" units-per-em="512" ascent="480" descent="-32"/>
<missing-glyph horiz-adv-x="512" />

<glyph glyph-name="advertisment" unicode="&#97;" d="M110 306l-102-28c0 0-10-2-7-18 3-17 18-77 18-77 0 0 3-14 22-9 18 5 93 30 93 30z m-68-140l88 26 4-6-4-7c0 0-4-15 32-23l0-16 46-53c0 0 6-8 0-13-6-5-29-25-29-25 0 0-7-6-14 0-8 7-123 117-123 117z m78 142l25-100c0 0 118 41 232-44l-74 302c0 0-73-130-183-158z m278-3l-12 7c5 12 7 22 4 30-3 10-12 14-12 14l6 14c0 0 14-6 20-23 4-12 2-26-6-42z m2 2c-5 2-9 5-13 7 0-1 0-2 1-3 4 9 8 20 5 31-2 7-7 13-14 16 1-1 1-2 2-3 2 5 3 10 5 15-1-1-2-1-3-2 7-3 13-10 17-17 7-15 3-31-4-45-1-3 3-6 5-3 7 15 11 32 4 48-4 9-11 17-20 21-1 1-3 1-4-1-2-5-3-10-5-15-1-1 0-2 1-2 16-8 13-28 6-41 0-1 0-3 1-3 5-3 9-5 13-8 3-1 6 3 3 5z m44-24l-13 7c16 31 16 59 1 84-11 19-27 29-27 29l7 14c1-1 75-48 32-134z m1 2c-4 3-8 5-12 8 0-2 0-3 0-4 12 24 17 51 7 76-7 16-19 31-34 41 0-2 1-3 1-4 2 5 5 9 7 14-1-1-2-1-3-1 8-6 15-13 22-21 14-16 22-37 22-59 0-18-5-35-13-51-2-3 3-5 4-2 13 26 19 56 9 84-6 17-18 33-32 46-3 2-6 5-10 7-1 1-2 0-3-1-2-4-5-9-7-13-1-2-1-3 1-4 13-8 24-22 30-37 11-24 6-50-5-72 0-2 0-3 1-4 4-2 9-5 13-7 3-2 5 3 2 4z m41-36l-13 8c28 51 29 99 3 141-19 33-47 50-47 50l7 14c2-2 53-33 69-93 9-38 3-78-19-120z m1 2c-4 3-8 6-12 8 0-1 0-2 1-3 16 30 25 65 19 100-5 31-23 59-46 80-6 5-12 10-19 14 0-1 1-2 1-3 2 4 5 9 7 13-1 0-2 0-3-1 14-9 28-22 38-35 24-29 36-65 33-102-2-25-11-49-22-71-2-3 3-6 4-3 20 39 30 83 18 125-9 31-28 58-52 78-5 5-11 9-17 13-1 1-3 0-3-1-3-4-5-9-8-14 0-1 0-2 1-3 17-10 31-26 42-41 18-27 26-58 22-90-3-20-11-39-20-57-1-1 0-3 1-3 4-3 9-6 13-8 3-2 5 3 2 4z"/>
<glyph glyph-name="secure" unicode="&#101;" d="M429 268c-13 4-24 7-24 7l0 102c0 0-14 136-150 136-135 0-149-130-149-130l-3-108-21-7c0 0-12-1-12-24 0-22 0-190 0-190 0 0 0-15 10-19 9-3 96-35 175-35 79 0 174 34 174 34 0 0 11 5 11 20 0 15 0 197 0 197 0 0 2 12-11 17z m-154-114l0-68c0 0-2-19-20-19-17 0-21 19-21 19l0 69c-11 7-19 20-19 34 0 23 18 41 41 41 22 0 41-18 41-41 0-15-9-29-22-35z m78 136c-88 21-197 0-197 0l0 78c0 0 4 97 99 94 96-2 98-91 98-91z"/>
<glyph glyph-name="newsletter" unicode="&#102;" d="M512 103l-512 0 0 307 512 0z m-506 7l499 0 0 293-499 0z m249 111l-253 178 4 5 249-175 249 176 4-5z"/>
<glyph glyph-name="marketing" unicode="&#103;" d="M307 37l-149 0 0 313 149-82z m-142 6l136 0 0 221-136 75z m299-6l-147 0 0 232 147 111z m-140 6l134 0 0 325-134-102z m141 375l-153-117-162 84-147-45-1 40 148 43 161-81 135 99z m-41 51l64-79 24 85z m-280-432l-143 0 0 267 1 0 142 45z m-136 6l130 0 0 297-130-41z"/>
<glyph glyph-name="contact" unicode="&#104;" d="M125 254c0 0 44-90 123-122l29 28c0 0 22 12 35 0 13-12 61-62 61-62 0 0 15-16-5-36-21-20-49-47-108-25-58 23-100 42-146 95-46 52-74 79-89 146-15 67 42 107 48 107 5 0 16 4 31-13 15-17 51-50 51-50 0 0 17-18 1-36-15-18-31-32-31-32z m387-77l-511 0 0 306 511 0z m-504 7l497 0 0 292-497 0z m248 110l-252 178 3 6 249-175 249 176 3-6z"/>
<glyph glyph-name="education" unicode="&#105;" d="M0 350l251 97 261-97-261-86z m98-49l0-69c0 0 71 8 153-46 0 0 101 59 154 47l0 68-154-50z m332 8l13 5 0-107c0 0 16-11 1-25 0 0 7 3 7-24 0-26 0-93 0-93l-30 0 0 94c0 0-3 18 7 22 0 0-15 12 1 26z"/>
<glyph glyph-name="research" unicode="&#106;" d="M421 0l-329 0 0 0c-1 1-30 13-37 36-4 10-2 20 4 30l133 247 0 158c-3 4-7 10-7 18-1 7 2 15 8 22l1 1 126 0 1-1c6-7 14-24 1-39l-2-159 136-251 0 0c0-1 7-20-1-37-6-12-17-20-34-25z m-327 7l326 0c14 4 24 11 28 21 7 14 2 29 1 31l-136 252 2 164 1 1c11 12 4 25 1 29l-119 0c-5-5-6-11-6-16 1-9 9-16 9-16l-1-1 0-161-135-248c-5-9-6-17-3-25 5-18 28-29 32-31z m100 239c26-7 62-15 89 12 26 26 39-11 52-34 12-23 82-152 82-152 0 0 18-32-5-42-23-10-285-3-285-3 0 0-43-3-31 39 6 24 98 180 98 180z m68 137c0-4-3-7-7-7-4 0-7 3-7 7 0 3 3 6 7 6 4 0 7-3 7-6z m30 42c0-5-5-10-11-10-5 0-10 5-10 10 0 6 5 11 10 11 6 0 11-5 11-11z m-19 31c0-7-5-12-12-12-6 0-12 5-12 12 0 7 6 12 12 12 7 0 12-5 12-12z"/>
<glyph glyph-name="share" unicode="&#107;" d="M418 507c36 0 66-29 66-66 0-36-30-65-66-65-36 0-66 29-66 65 0 37 30 66 66 66m0 5c-39 0-71-32-71-71 0-39 32-70 71-70 39 0 70 31 70 70 0 39-31 71-70 71z m-323-189c36 0 65-30 65-66 0-36-29-66-65-66-37 0-66 30-66 66 0 36 29 66 66 66m0 5c-39 0-71-32-71-71 0-39 32-71 71-71 39 0 70 32 70 71 0 39-31 71-70 71z m323-191c36 0 66-30 66-66 0-36-30-66-66-66-36 0-66 30-66 66 0 36 30 66 66 66m0 5c-39 0-71-32-71-71 0-39 32-71 71-71 39 0 70 32 70 71 0 39-31 71-70 71z m-262 148l201 116 3-5-201-116z m0-68l3 6 201-116-3-5z"/>
<glyph glyph-name="share-b" unicode="&#108;" d="M488 441c0-39-31-70-70-70-39 0-71 31-71 70 0 39 32 71 71 71 39 0 70-32 70-71z m-323-184c0-39-31-71-70-71-39 0-71 32-71 71 0 39 32 71 71 71 39 0 70-32 70-71z m323-186c0-39-31-71-70-71-39 0-71 32-71 71 0 39 32 71 71 71 39 0 70-32 70-71z m-332 219l201 116 3-5-201-116z m0-68l3 6 201-116-3-5z"/>
<glyph glyph-name="sell" unicode="&#99;" d="M418 507c36 0 66-29 66-66 0-36-30-65-66-65-36 0-66 29-66 65 0 37 30 66 66 66m0 5c-39 0-71-32-71-71 0-39 32-70 71-70 39 0 70 31 70 70 0 39-31 71-70 71z m-323-189c36 0 65-30 65-66 0-36-29-66-65-66-37 0-66 30-66 66 0 36 29 66 66 66m0 5c-39 0-71-32-71-71 0-39 32-71 71-71 39 0 70 32 70 71 0 39-31 71-70 71z m323-191c36 0 66-30 66-66 0-36-30-66-66-66-36 0-66 30-66 66 0 36 30 66 66 66m0 5c-39 0-71-32-71-71 0-39 32-71 71-71 39 0 70 32 70 71 0 39-31 71-70 71z m-262 148l201 116 3-5-201-116z m0-68l3 6 201-116-3-5z m281 192c-2-2-8-4-16-4-7 0-15 3-20 8-4 4-6 9-7 14l-8 0 0 6 7 0c0 1 0 2 0 3 0 1 0 2 0 4l-7 0 0 5 8 0c1 6 4 10 7 14 6 6 14 9 22 9 7 0 11-2 14-4l-2-7c-3 2-6 3-12 3-5 0-10-2-14-6-3-2-4-5-5-9l29 0 0-5-30 0c0-1 0-3 0-3 0-1 0-3 0-4l30 0 0-6-29 0c1-3 2-6 4-8 4-4 9-6 15-6 6 0 10 2 13 3z m-323-186c-2-1-8-3-15-3-8 0-16 2-21 8-4 3-6 8-7 14l-7 0 0 5 6 0c0 1 0 2 0 3 0 1 0 3 0 4l-6 0 0 6 7 0c1 5 4 10 7 13 6 6 14 9 22 9 7 0 11-2 14-3l-2-8c-3 2-6 3-12 3-5 0-10-1-14-5-3-3-4-6-5-9l29 0 0-6-30 0c0-1 0-2 0-3 0-1 0-2 0-4l30 0 0-5-29 0c1-4 2-7 4-9 5-4 9-5 15-5 6 0 10 1 13 3z m323-186c-2-2-8-4-16-4-7 0-15 3-20 8-4 3-6 8-7 14l-8 0 0 6 7 0c0 1 0 2 0 2 0 2 0 3 0 4l-7 0 0 6 8 0c1 5 4 10 7 13 6 6 14 9 22 9 7 0 11-2 14-3l-2-7c-3 1-6 3-12 3-5 0-10-2-14-6-3-2-4-5-5-9l29 0 0-5-30 0c0-2 0-3 0-4 0-1 0-2 0-3l30 0 0-6-29 0c1-3 2-6 4-8 4-4 9-6 15-6 6 0 10 1 13 3z"/>
<glyph glyph-name="bookkeeping" unicode="&#100;" d="M491 404c0 0-85-288-95-320-11-32-30-25-30-25l-301 0c0 0-26-4-26 20 0 24 18 19 18 19 0 0 236-1 273 0 37 1 43 40 43 40 0 0 74 245 89 298 15 53-34 58-34 58l-249 0c0 0-34 8-52-33-18-40-124-337-124-337-20-101 72-106 72-106 0 0 265 0 301 0 36 1 49 40 49 40 0 0 78 262 86 295 8 34-20 51-20 51z m-154-43l-139 0 0 17 139 0z m-170 51l207 0 0-17-207 0z"/>
<glyph glyph-name="shipping" unicode="&#109;" d="M258 0l-224 125 0 262 225 125 218-121 0-269z m-206 135l206-115 201 113 0 248-200 111-207-115z m207 117l-220 122 8 16 211-117 206 117 8-16z m40-95l0 84 68 37 0-83z m18 74l0-44 32 19 0 42z m-172 99l208 119 9-15-208-119z m105-68l18 0 0-252-18 0z"/>
<glyph glyph-name="internal" unicode="&#110;" d="M304 266l86 105 86-105-48 0-1-166-80 0 0 166z m24 49c2 1 4 1 6 2l44 55c3 11 2 24-2 38l-41-42-33-5-20 19 2 29 41 47c-24 17-116-6-83-100l-112-116c0 0-12 9-32 7-19-3-82-18-67-102l40 41 29 4 23-22-4-28-37-42c0 0 16-5 35-4 19 1 81 45 57 98l115 123c0 0 20-7 39-2z"/>
<glyph glyph-name="sell-b" unicode="&#111;" d="M156 290l201 116 3-5-201-116z m0-68l3 6 201-116-3-5z m262 290c-39 0-71-32-71-71 0-39 32-70 71-70 39 0 70 31 70 70 0 39-31 71-70 71z m3-102c-7 0-15 3-20 8-4 4-6 9-7 14l-8 0 0 6 7 0c0 1 0 2 0 3 0 1 0 2 0 4l-7 0 0 5 8 0c1 6 4 10 7 14 6 6 14 9 22 9 7 0 11-2 14-4l-2-7c-3 2-6 3-12 3-5 0-10-2-14-6-3-2-4-5-5-9l29 0 0-5-30 0c0-1 0-3 0-3 0-1 0-3 0-4l30 0 0-6-29 0c1-3 2-6 4-8 4-4 9-6 15-6 6 0 10 2 13 3l1-7c-2-2-8-4-16-4z m-326-82c-39 0-71-32-71-71 0-39 32-71 71-71 39 0 70 32 70 71 0 39-31 71-70 71z m4-103c-8 0-16 2-21 8-4 3-6 8-7 14l-7 0 0 5 6 0c0 1 0 2 0 3 0 1 0 3 0 4l-6 0 0 6 7 0c1 5 4 10 7 13 6 6 14 9 22 9 7 0 11-2 14-3l-2-8c-3 2-6 3-12 3-5 0-10-1-14-5-3-3-4-6-5-9l29 0 0-6-30 0c0-1 0-2 0-3 0-1 0-2 0-4l30 0 0-5-29 0c1-4 2-7 4-9 5-4 9-5 15-5 6 0 10 1 13 3l1-8c-2-1-8-3-15-3z m319-83c-39 0-71-32-71-71 0-39 32-71 71-71 39 0 70 32 70 71 0 39-31 71-70 71z m3-104c-7 0-15 3-20 8-4 3-6 8-7 14l-8 0 0 6 7 0c0 1 0 2 0 2 0 2 0 3 0 4l-7 0 0 6 8 0c1 5 4 10 7 13 6 6 14 9 22 9 7 0 11-2 14-3l-2-7c-3 1-6 3-12 3-5 0-10-2-14-6-3-2-4-5-5-9l29 0 0-5-30 0c0-2 0-3 0-4 0-1 0-2 0-3l30 0 0-6-29 0c1-3 2-6 4-8 4-4 9-6 15-6 6 0 10 1 13 3l1-7c-2-2-8-4-16-4z"/>
<glyph glyph-name="marketing-b" unicode="&#98;" d="M0 303l0-266 138 0 0 306m22-306l0 306 143-79 0-227z m159 229l142 107 0-336-142 0z m146 151l-154-118-163 85-148-45 0 39 148 44 162-82 136 101z m-42 51l65-79 24 86z"/>
<glyph glyph-name="share-public" unicode="&#112;" d="M418 507c36 0 66-29 66-66 0-36-30-65-66-65-36 0-66 29-66 65 0 37 30 66 66 66m0 5c-39 0-71-32-71-71 0-39 32-70 71-70 39 0 70 31 70 70 0 39-31 71-70 71z m-323-189c36 0 65-30 65-66 0-36-29-66-65-66-37 0-66 30-66 66 0 36 29 66 66 66m0 5c-39 0-71-32-71-71 0-39 32-71 71-71 39 0 70 32 70 71 0 39-31 71-70 71z m323-191c36 0 66-30 66-66 0-36-30-66-66-66-36 0-66 30-66 66 0 36 30 66 66 66m0 5c-39 0-71-32-71-71 0-39 32-71 71-71 39 0 70 32 70 71 0 39-31 71-70 71z m-262 148l201 116 3-5-201-116z m0-68l3 6 201-116-3-5z m183 115c-44 0-80-36-80-80 0-44 36-80 80-80 44 0 80 36 80 80 0 44-36 80-80 80z m-40-19c-8-6-14-12-19-18 5 7 12 13 19 18z m40-133c-17 0-34 6-46 17-1 1-1 3-1 5 0 2 3 0 3 6-1 6-2 6-2 6 2 10-3 13-7 16-4 3-5-1-8 2-3 2-5 3-3 7 1 3-6 3-6 3-6 14 2 34 3 37 2 3 8 3 8 3 0 0 0 5 5 4 5-1 5-1 7 4 1 5 3 5 5 7 3 1 3 2 6 1 4-1-1 4-2 6-1 2 1 3 2 5 1 2-1 5-2 5 11 7 24 11 38 11 14 0 27-4 37-10-3-1-10-9-14-2-4 8-4 5-5 5-1-1-6-4-8-4-2 0-4 4-6 2-2-1-6-4-5-10 1-7-4-12-4-12 0 0-7 2-5 6 1 3-2 5-3 5 0 0-10-5-10-11 0-6 3 1 4 0 1-1 5-1 5-3 0-1 1-1-2-3-3-1-5 2-7-1-1-4 1-4 0-6 0-1-1-1 0-3 0-1 4 0 3-2-1-2 1-3-3-4-5-2-3-2-4-4-1-1-2-1-3-3-1-1-1-3-1-5-1-1-2-2-2-3 0-2 0-2 0-3 0-2 0-2 0-4 0-2 1-2 0-3 0-2-3-2-1-4 1-1 3-4 11-5 8-2 8-1 11 0 3 0 6 2 8-4 2-6 4-7 6-11 3-3 3-8 3-11-1-3 0-6 1-9 1-3 1-7 7-13 1-1 0 2 2 2 1 1 3 3 7 3 3 1 7 5 8 8 2 3 2 6 2 6 0 0 1-4 4-5 3-1 3-1 5 1 2 1 4 0 5 6 1 6 4 3-1 4-5 2-6 0-8 2-1 2 0 8 2 9 3 0 5 5 9 8 4 4 5 6 4 8-2 1 3 4 0 5-4 0-7-1-10 0-4 2-6 6-7 9-1 3-1 9-1 9 0 0 2-2 2-6 1-5 3-5 6-7 2-2 2-3 2-3 0 0 0 1 3 1 4 0 9 3 10 8 2 5 2 5 2 5 0 0 0-1 3-1 3-1 4 0 6-4 1-3-1-8 1-9 1-2 2-1 3-3 0-1 0-3 1-4-6-35-36-62-73-62z m30 92c1-5-5-5-8-2-3 3-6 4-10 3-4-1-6 1-9 3-2 2 0 3-4 4-3 1-5-1-7 1-2 1 0 1 1 2 0 0 2-1 5 0 3 1 2 2 6 0 4-1 4-3 4-3 0 0 2 2 4 0 2-1 8-2 14-3 7 0 3 0 4-5z m-23 37c0 0 6-3 7-5 2-1-1-3-1-4-1-1-2-1-5 1-3 2-6 0-6 0 0 0 0 0-1 1-1 0 5 2 6 3 1 2 0 3 0 4z"/>
<glyph glyph-name="education-spy" unicode="&#113;" d="M0 350l251 97 261-97-261-86z m430-41l13 5 0-107c0 0 16-11 1-25 0 0 7 3 7-24 0-26 0-93 0-93l-30 0 0 94c0 0-3 18 7 22 0 0-15 12 1 26z m-179-58l-90 29c3-8 4-16 4-16 31-7 39-15 31-22-7-7-21-15-21-15 0-2 0-4 0-5 23-7 49-18 76-36 0 0 101 59 154 47l0 68z m-53-93c-11 14-20 21-20 21l12 30-31 0c0 0 7 11 4 23 0 0 17 2 24 8 8 8 4 13-26 19 0 0-6 25-18 37-13 11-26-6-33-6 0 0-5-2-17 7 0 0-12 8-23-11-7-12-10-20-12-27 0 0-24-4-29-11-2-3-4-11 29-17 0 0-5-6 0-22l-29 0 12-30c0 0-16-9-22-25-5-15-12-49-6-67 5-17 13-19 31-20 17-2 128-2 136 0 9 1 24 9 27 24 3 16 3 53-9 67z m-106-75l-17 90 15-8 14-17z m35 0l-12 65 14 17 15 8z m22 139c-1-1-2 0-2-3-1-2-3-17-12-17-9 0-15-1-18 4-3 6-3 8-4 10-1 4-6 4-7 0-1-3-4-14-10-14-6 0-7 0-13 0-4 0-9 6-10 15 0 0 0 3-2 4-2 1-2 1-2 4 0 3 1 2 3 2 1 0 22 0 23 0 1 0 5 0 6-1 1 0 5-1 5-1l7 0c0 0 2 0 4 1 2 1 5 1 8 1 2 0 22 0 22 0 0 0 3 0 3-1 0-1 0-3-1-4z"/>
<glyph glyph-name="share-friends" unicode="&#114;" d="M418 507c36 0 66-29 66-66 0-36-30-65-66-65-36 0-66 29-66 65 0 37 30 66 66 66m0 5c-39 0-71-32-71-71 0-39 32-70 71-70 39 0 70 31 70 70 0 39-31 71-70 71z m-323-189c36 0 65-30 65-66 0-36-29-66-65-66-37 0-66 30-66 66 0 36 29 66 66 66m0 5c-39 0-71-32-71-71 0-39 32-71 71-71 39 0 70 32 70 71 0 39-31 71-70 71z m323-191c36 0 66-30 66-66 0-36-30-66-66-66-36 0-66 30-66 66 0 36 30 66 66 66m0 5c-39 0-71-32-71-71 0-39 32-71 71-71 39 0 70 32 70 71 0 39-31 71-70 71z m-262 148l201 116 3-5-201-116z m0-68l3 6 201-116-3-5z m219 68c0-16-12-28-27-28-16 0-28 12-28 28 0 15 12 27 28 27 15 0 27-12 27-27z m-75-96l0 34c0 0 4 29 29 29 24 1 37 1 43 0 5-2 20-10 21-28 0-18 0-35 0-35 0 0-44-20-93 0z m80 93c7 0 25 1 30 0 4-1 29-8 29-29 0-21 0-35 0-35 0 0-11-8-38-9 0 0 4 19-8 34-8 9-22 17-22 17 0 0 2 0 6 8 3 7 3 14 3 14z m-66 0c-7 0-25 1-29 0-5-1-30-8-30-29 0-21 0-35 0-35 0 0 12-8 38-9 0 0-4 19 8 34 8 9 23 17 23 17 0 0-3 0-6 8-4 7-4 14-4 14z m79 59c-15 0-27-12-27-27 8-6 13-14 14-25 4-2 9-3 13-3 15 0 28 13 28 28 0 15-13 27-28 27z m-91 0c15 0 27-12 27-27-8-6-13-15-15-25-3-2-8-3-12-3-16 0-28 12-28 27 0 16 12 28 28 28z"/>
<glyph glyph-name="research-spy" unicode="&#115;" d="M212 414c0-3-3-6-6-6-3 0-5 3-5 6 0 3 2 5 5 5 3 0 6-2 6-5z m22 32c0-4-3-8-8-8-4 0-7 4-7 8 0 4 3 8 7 8 5 0 8-4 8-8z m-14 23c0-5-4-9-9-9-5 0-9 4-9 9 0 5 4 10 9 10 5 0 9-5 9-10z m62-340l-198 0c-3 1-20 10-24 23-2 6-2 13 2 19l102 189 0 122 1 0c0 1-6 6-6 13-1 4 1 8 4 12l90 0c2-3 8-13 0-22l-1-1-2-124 74-137c1 2 2 3 4 5l-73 133 2 121c10 11 4 24 0 29l-1 1-96 0-1-1c-4-5-6-11-6-17 1-6 4-10 6-13l0-120-102-187c-4-8-5-16-3-24 6-17 27-26 28-27l1 0 201 0z m168-40c-11 13-19 20-19 20l11 29-29 0c0 0 6 11 3 21 0 0 17 3 23 9 8 7 4 12-25 18 0 0-6 24-17 35-12 11-25-5-31-5 0 0-5-2-17 7 0 0-11 7-22-11-6-12-10-20-11-26 0 0-24-4-28-11-2-3-5-10 27-16 0 0-4-6 0-21l-27 0 11-29c0 0-16-9-21-24-5-15-11-47-6-64 5-17 13-18 30-20 17-2 123-2 131 0 9 2 22 9 25 23 3 16 3 52-8 65z m-102-72l-17 86 15-8 14-16z m34 0l-12 62 13 16 15 8z m21 133c-1-1-2 0-3-2 0-3-3-17-11-17-8 0-15-1-17 4-3 5-3 8-4 10-1 3-6 3-6 0-1-4-5-14-10-14-6 0-7 0-12 0-4 0-9 5-10 15 0 0 0 2-2 3-2 1-2 1-2 4 1 3 1 2 3 2 1 0 21 0 22 0 1 0 5 0 6-1 1 0 5-1 5-1l6 0c0 0 2 0 4 1 2 1 5 1 7 1 3 0 21 0 21 0 0 0 4 0 4-1 0-1 0-3-1-4z m-124-4l32 0c-1 3-2 6-2 7-35 7-32 22-30 25 5 9 32 13 32 13 1 4 2 8 4 12-16 31-42 79-48 91-10 17-19 45-40 25-20-20-47-14-67-9 0 0-70-119-75-137-9-31 24-29 24-29 0 0 107-3 171-2z"/>
<glyph glyph-name="share-spy" unicode="&#116;" d="M488 441c0-39-31-70-70-70-39 0-71 31-71 70 0 39 32 71 71 71 39 0 70-32 70-71z m0-370c0-39-31-71-70-71-39 0-71 32-71 71 0 39 32 71 71 71 39 0 70-32 70-71z m-332 219l201 116 3-5-201-116z m-102-90c8 3 19 6 19 6 1 7 5 14 13 27 12 20 26 12 26 12 13-9 19-7 19-7 7 0 20 17 33 6 1 4 1 9 1 13 0 39-31 71-70 71-39 0-71-32-71-71 0-24 12-45 30-57z m163-102c-11 14-20 21-20 21l11 30-30 0c0 0 7 10 3 22 0 0 18 2 25 8 7 8 3 13-26 19 0 0-6 25-18 36-13 11-25-5-32-5 0 0-5-2-17 7 0 0-12 7-23-12-7-12-10-19-12-26 0 0-24-4-29-11-2-3-4-11 29-17 0 0-5-6 0-21l-29 0 12-30c0 0-16-9-21-25-5-15-12-49-7-66 5-17 14-19 31-20 17-2 127-2 135 0 9 1 23 8 26 24 3 16 3 53-8 66z m-105-74l-17 89 15-8 14-17z m34 0l-12 64 14 17 15 8z m22 137c-1-1-2 0-2-2-1-3-3-17-12-17-9 0-15-1-18 4-2 5-3 8-4 10 0 3-6 3-6 0-1-4-5-14-11-14-6 0-7 0-12 0-4 0-9 5-10 14 0 0 0 3-2 4-2 1-2 2-2 4 0 3 1 2 3 2 1 0 22 0 23 0 1 0 5 0 6 0 1-1 5-2 5-2l6 0c0 0 3 1 4 2 2 0 5 0 8 0 3 0 22 0 22 0 0 0 3 0 3 0 0-1 0-4-1-5z m10 56c2-4 4-7 6-10l173-100 3 5z"/>
<glyph glyph-name="profil" unicode="&#117;" d="M368 404c0-60-48-108-108-108-59 0-107 48-107 108 0 59 48 107 107 107 60 0 108-48 108-107z m-292-369l0 130c0 0 16 113 110 115 95 3 144 5 167-2 22-7 81-38 83-108 2-70 0-135 0-135 0 0-171-77-360 0z"/>
<glyph glyph-name="marketing-spy" unicode="&#118;" d="M0 346l0-204 106 0 0 236m17-236l0 236 110-61 0-175z m235 293l-119-92-125 66-114-35 0 31 114 33 125-63 105 78z m-32 39l50-61 19 66z m-11-311l-11 35 35 0c-2 5-3 8-3 10-43 7-30 26-28 29 7 9 34 13 34 13 2 8 9 24 19 38l0 113-109-82 0-177 45 0c8 15 18 21 18 21z m187-30c-13 15-22 22-22 22l12 33-33 0c0 0 8 12 4 24 0 0 19 2 26 9 9 8 4 14-28 21 0 0-7 27-20 39-13 12-27-6-35-6 0 0-5-1-19 8 0 0-12 9-24-12-8-13-11-22-13-29 0 0-27-4-32-13-2-3-5-11 31-18 0 0-4-6 0-23l-31 0 13-33c0 0-18-10-23-27-6-17-13-53-8-72 6-19 15-21 34-23 19-2 139-2 148 0 10 2 25 10 28 27 4 17 4 58-8 73z m-115-82l-19 97 17-8 15-19z m37 0l-13 70 15 19 17 8z m24 150c-1 0-2 0-2-2-1-3-4-19-13-19-10 0-17-1-20 5-2 5-3 8-4 10-1 4-6 4-7 0-1-3-5-15-12-15-6 0-7 0-13 0-5 0-10 6-11 16 0 0 0 3-2 4-2 1-3 2-2 4 0 4 0 3 2 3 2 0 25 0 26 0 1 0 5 0 6-1 1-1 6-2 6-2l7 0c0 0 3 1 4 2 2 1 6 1 9 1 3 0 24 0 24 0 0 0 3 0 3-1 0-1 0-4-1-5z"/>
<glyph glyph-name="share-accept" unicode="&#119;" d="M418 507c36 0 66-29 66-66 0-36-30-65-66-65-36 0-66 29-66 65 0 37 30 66 66 66m0 5c-39 0-71-32-71-71 0-39 32-70 71-70 39 0 70 31 70 70 0 39-31 71-70 71z m-323-189c36 0 65-30 65-66 0-36-29-66-65-66-37 0-66 30-66 66 0 36 29 66 66 66m0 5c-39 0-71-32-71-71 0-39 32-71 71-71 39 0 70 32 70 71 0 39-31 71-70 71z m323-191c36 0 66-30 66-66 0-36-30-66-66-66-36 0-66 30-66 66 0 36 30 66 66 66m0 5c-39 0-71-32-71-71 0-39 32-71 71-71 39 0 70 32 70 71 0 39-31 71-70 71z m-262 148l201 116 3-5-201-116z m0-68l3 6 201-116-3-5z m212 93c0-19-15-35-35-35-19 0-35 16-35 35 0 20 16 35 35 35 20 0 35-15 35-35z m-95-120l0 42c0 0 5 37 36 38 31 1 48 2 55-1 7-2 26-12 27-35 1-23 0-44 0-44 0 0-56-25-118 0z m129 103l8 0 0-44-8 0z m-18-26l0 7 45 0 0-7z"/>
<glyph glyph-name="shopping-cart" unicode="&#120;" d="M199 97c0-16-14-30-30-30-17 0-30 14-30 30 0 17 13 30 30 30 16 0 30-13 30-30z m212 0c0-16-14-30-31-30-16 0-30 14-30 30 0 17 14 30 30 30 17 0 31-13 31-30z m-35 132c7 0 13 4 16 10l0 0 75 130 0 0c1 2 2 5 2 7 0 10-8 18-18 18l-274 0 0 33c0 10-8 18-18 18l-97 0 0 0c0 0-1 0-1 0-9 0-16-7-17-16l-1 0 0-17c0-10 8-18 18-18 0 0 1 0 1 0l0 0 64 0 0-224 0 0c0-10 8-17 17-17 0 0 0 0 0 0l304 0 0 0c8 1 15 7 16 15l0 0 0 2c0 0 0 1 0 1 0 0 0 0 0 0l0 15c0 0 0 0 0 0 0 9-7 17-16 18l0 0-270 0 0 25 199 0z"/>
<glyph glyph-name="shopping-cart-b" unicode="&#121;" d="M441 96c0-14-11-25-25-25-14 0-25 11-25 25 0 14 11 25 25 25 14 0 25-11 25-25z m-288 0c0-14-11-25-25-25-14 0-25 11-25 25 0 14 11 25 25 25 14 0 25-11 25-25z m-25 320l320 0-15-175c0 0-209-30-244-34-35-4-69-30-74-62l333 0 0-17-352 0c0 0 0 5 2 17 5 35 33 62 65 73l-57 213-42 0 0 17 53 0z m288-160l15 143-297 0 44-177c1 0 2 1 3 1z"/>
<glyph glyph-name="trash" unicode="&#122;" d="M400 399l0-15-20 0-24-291c0-16-13-29-29-29l-141 0c-16 0-29 13-29 29l-24 291-21 0 0 15 80 0 0 20c0 16 13 29 29 29l70 0c16 0 29-13 29-29l0-20z m-193 20l0-20 98 0 0 20c0 8-6 14-14 14l-70 0c-8 0-14-6-14-14z m135-325l23 290-217 0 23-290 0-1c0-8 7-14 15-14l141 0c8 0 15 6 15 14z m-93 17l0 241 14 0 0-241z m71 241l-11-241-14 0 10 241z m-114 0l11-241-14 0-11 241z"/>
<glyph glyph-name="plus-circle" unicode="&#65;" d="M256 480c124 0 224-100 224-224 0-124-100-224-224-224-124 0-224 100-224 224 0 124 100 224 224 224z m128-240l0 32-112 0 0 112-32 0 0-112-112 0 0-32 112 0 0-112 32 0 0 112z"/>
<glyph glyph-name="plus-add" unicode="&#66;" d="M417 288c17 0 31-14 31-32 0-18-14-32-31-32l-129 0 0-129c0-17-14-31-32-31-18 0-32 14-32 31l0 129-129 0c-17 0-31 14-31 32 0 18 14 32 31 32l129 0 0 129c0 17 14 31 32 31 18 0 32-14 32-31l0-129z"/>
</font>
</defs>
</svg>
